<svg version="1.1" id="Layer_1" xmlns="http://www.w3.org/2000/svg" xmlns:xlink="http://www.w3.org/1999/xlink" x="0px" y="0px"
	 width="100%" viewBox="0 0 832 800" enable-background="new 0 0 832 800" xml:space="preserve">
<path fill="#be381c" opacity="1.000000" stroke="none" 
	d="
M482.865601,727.888550 
	C455.462524,749.633911 424.607483,759.056396 390.195831,755.412048 
	C340.997986,750.201782 305.951782,724.798889 285.479797,679.746704 
	C279.799164,667.245422 276.759979,653.898376 275.923004,640.120972 
	C275.775116,637.686401 275.810913,635.624695 278.721283,634.498840 
	C300.524170,626.064392 319.753601,613.204651 338.506744,599.531799 
	C340.061737,598.398132 341.435577,596.798706 343.634430,596.648987 
	C345.287567,598.408081 344.072998,600.130066 343.613403,601.782349 
	C339.191040,617.681458 338.645172,633.706848 342.707153,649.699524 
	C349.479950,676.365051 371.104858,694.619202 395.577271,696.646240 
	C429.294495,699.439148 451.458099,680.244202 459.507141,655.394409 
	C469.279816,625.223389 466.247650,596.471863 443.044128,572.786438 
	C428.151215,557.584229 409.291473,552.958923 388.345551,556.500122 
	C368.157867,559.913208 351.521179,570.587646 335.322693,582.158264 
	C318.236511,594.362976 301.384888,607.023499 282.029877,615.479980 
	C254.577850,627.474182 226.150162,631.347290 197.426102,620.954712 
	C170.268723,611.129089 152.224747,591.494507 142.768341,564.316956 
	C133.355118,537.263428 138.113632,511.207642 149.092773,485.602875 
	C156.771057,467.696106 166.092010,450.560394 173.142960,432.353516 
	C190.513229,387.500183 196.612305,341.394836 190.214813,293.612549 
	C184.948593,254.279633 172.910370,217.076065 156.134216,181.272369 
	C155.499771,179.918350 154.892456,178.550278 154.326584,177.166626 
	C154.216400,176.897141 154.357452,176.524902 154.503799,174.635605 
	C163.670410,179.506973 171.979874,184.616989 179.957687,190.248093 
	C229.109344,224.941452 267.256378,268.888824 292.536499,323.697357 
	C290.243042,325.641510 288.675171,323.987274 287.154358,323.360687 
	C274.066711,317.968964 261.032623,312.447296 247.948410,307.047089 
	C245.892899,306.198730 243.606094,304.145752 241.467712,305.990143 
	C239.316879,307.845276 241.088882,310.464294 241.630890,312.546082 
	C246.601395,331.636871 249.645966,350.983215 250.412033,370.719421 
	C251.407349,396.362457 248.574982,421.570099 242.762970,446.520355 
	C238.562561,464.552063 233.045334,482.161346 226.787033,499.572235 
	C223.358017,509.111938 221.261810,518.769653 226.132477,528.661194 
	C230.336304,537.198486 237.054382,541.905273 246.384872,542.815002 
	C257.119385,543.861633 267.099762,540.900574 276.963470,536.956238 
	C298.686432,528.269592 318.444122,515.639893 339.647156,505.963959 
	C362.161011,495.689880 385.744965,489.032471 410.751312,491.177002 
	C434.373413,493.202820 456.600342,500.449402 477.487000,511.865417 
	C495.894806,521.926575 514.222961,532.219666 534.082642,539.291260 
	C541.500610,541.932556 549.114868,543.383545 557.101562,542.891296 
	C571.725220,541.990112 583.388489,527.596802 581.264526,513.008301 
	C580.171631,505.502106 577.360046,498.564087 574.839905,491.515778 
	C560.411621,451.163879 551.676575,409.824310 553.970825,366.717773 
	C554.972717,347.893555 558.207458,329.346710 562.978394,311.091400 
	C563.433228,309.351227 564.652039,307.442780 563.056885,305.935944 
	C561.261353,304.239899 559.251709,305.662994 557.479248,306.408630 
	C544.585144,311.832886 531.722839,317.332703 518.836304,322.774872 
	C516.883667,323.599518 514.983093,324.709625 511.536163,324.627045 
	C518.469238,307.272217 527.758362,291.911957 537.979675,277.174377 
	C567.236084,234.991119 603.997559,200.916672 648.389343,175.165527 
	C650.792297,177.860153 648.885498,179.315186 648.217285,180.790573 
	C633.668518,212.912323 621.915527,245.930374 615.966370,280.820312 
	C607.769348,328.893646 611.305969,375.945923 627.355469,422.147614 
	C634.820496,443.637268 645.248535,463.744110 654.518005,484.388672 
	C663.796997,505.054413 668.583679,526.297180 665.562012,548.977966 
	C660.421631,587.562988 627.482422,620.150696 589.023254,625.593933 
	C571.423767,628.084961 554.522217,625.713501 537.689270,621.203064 
	C530.301392,619.223450 529.142639,619.846558 529.100891,627.608765 
	C528.943665,656.811401 521.162048,683.508545 503.286346,706.925842 
	C497.400116,714.636841 490.770813,721.637512 482.865601,727.888550 
 z"/>
<path fill="#be381c" opacity="1.000000" stroke="none" 
	d="
M360.014771,378.215576 
	C362.317139,349.203491 364.578735,320.659637 366.891693,292.119965 
	C369.177460,263.915436 371.574738,235.719727 373.786743,207.509460 
	C374.316589,200.752014 372.731873,199.916809 366.310059,202.509827 
	C353.039215,207.868393 339.722351,213.113098 326.425354,218.406891 
	C325.499023,218.775681 324.586365,219.225876 323.572632,218.689896 
	C323.235626,215.382111 397.973419,56.965542 402.757019,51.569447 
	C429.320648,107.312485 455.700104,162.669006 482.040649,217.943893 
	C479.151001,219.881439 477.596710,218.382126 476.026978,217.754623 
	C462.882294,212.500061 449.785126,207.126465 436.638458,201.876892 
	C430.813385,199.550903 429.665710,200.265610 430.177521,206.485733 
	C432.266388,231.871521 434.576569,257.238983 436.715454,282.620789 
	C437.917511,296.885803 438.937744,311.166046 440.051147,325.438599 
	C442.329956,354.650574 444.574005,383.865356 446.913666,413.072510 
	C448.682190,435.149902 450.600800,457.215302 452.396027,479.290649 
	C452.772552,483.920258 451.743103,484.722260 447.203949,483.074646 
	C429.554321,476.668304 411.310455,474.289185 392.670380,475.471252 
	C381.191895,476.199127 369.913971,478.498169 358.973755,482.229095 
	C356.973816,482.911102 355.015411,484.056671 351.858093,483.231628 
	C354.565002,448.458374 357.280731,413.572021 360.014771,378.215576 
 z"/>
</svg>